<mxfile host="app.diagrams.net" modified="2023-12-17T17:48:58.286Z" agent="Mozilla/5.0 (Windows NT 10.0; Win64; x64) AppleWebKit/537.36 (KHTML, like Gecko) Chrome/120.0.0.0 Safari/537.36" etag="uBs_d55L7NG4TgN4nhAW" version="22.1.11" type="device">
  <diagram name="Trang-1" id="Kivfj_RRzhvX_NCxZEIx">
    <mxGraphModel dx="1434" dy="756" grid="0" gridSize="10" guides="1" tooltips="1" connect="1" arrows="1" fold="1" page="1" pageScale="1" pageWidth="827" pageHeight="1169" math="0" shadow="0">
      <root>
        <mxCell id="0" />
        <mxCell id="1" parent="0" />
        <mxCell id="ED8gdHnS3LrSKot_yKOK-59" value="" style="rounded=0;whiteSpace=wrap;html=1;" vertex="1" parent="1">
          <mxGeometry x="49" y="620" width="241" height="220" as="geometry" />
        </mxCell>
        <mxCell id="ED8gdHnS3LrSKot_yKOK-1" value="" style="rounded=0;whiteSpace=wrap;html=1;" vertex="1" parent="1">
          <mxGeometry x="30" y="330" width="630" height="180" as="geometry" />
        </mxCell>
        <mxCell id="ED8gdHnS3LrSKot_yKOK-2" value="" style="image;aspect=fixed;perimeter=ellipsePerimeter;html=1;align=center;shadow=0;dashed=0;spacingTop=3;image=img/lib/active_directory/laptop_client.svg;" vertex="1" parent="1">
          <mxGeometry x="377.5" y="114" width="45" height="50" as="geometry" />
        </mxCell>
        <mxCell id="ED8gdHnS3LrSKot_yKOK-21" style="edgeStyle=orthogonalEdgeStyle;rounded=0;orthogonalLoop=1;jettySize=auto;html=1;" edge="1" parent="1" source="ED8gdHnS3LrSKot_yKOK-5" target="ED8gdHnS3LrSKot_yKOK-10">
          <mxGeometry relative="1" as="geometry" />
        </mxCell>
        <mxCell id="ED8gdHnS3LrSKot_yKOK-5" value="Client" style="text;html=1;strokeColor=none;fillColor=none;align=center;verticalAlign=middle;whiteSpace=wrap;rounded=0;" vertex="1" parent="1">
          <mxGeometry x="370" y="158" width="60" height="30" as="geometry" />
        </mxCell>
        <mxCell id="ED8gdHnS3LrSKot_yKOK-7" value="Server" style="text;html=1;strokeColor=none;fillColor=none;align=center;verticalAlign=middle;whiteSpace=wrap;rounded=0;" vertex="1" parent="1">
          <mxGeometry x="30" y="300" width="60" height="30" as="geometry" />
        </mxCell>
        <mxCell id="ED8gdHnS3LrSKot_yKOK-28" style="edgeStyle=orthogonalEdgeStyle;rounded=0;orthogonalLoop=1;jettySize=auto;html=1;" edge="1" parent="1" source="ED8gdHnS3LrSKot_yKOK-10" target="ED8gdHnS3LrSKot_yKOK-27">
          <mxGeometry relative="1" as="geometry" />
        </mxCell>
        <mxCell id="ED8gdHnS3LrSKot_yKOK-10" value="Cloudflare" style="rounded=0;whiteSpace=wrap;html=1;" vertex="1" parent="1">
          <mxGeometry x="340" y="230" width="120" height="60" as="geometry" />
        </mxCell>
        <mxCell id="ED8gdHnS3LrSKot_yKOK-17" value="" style="verticalLabelPosition=bottom;sketch=0;html=1;fillColor=#A153A0;verticalAlign=top;align=center;pointerEvents=1;shape=mxgraph.cisco_safe.design.actor_2;" vertex="1" parent="1">
          <mxGeometry x="159.5" y="110" width="19" height="50" as="geometry" />
        </mxCell>
        <mxCell id="ED8gdHnS3LrSKot_yKOK-22" style="edgeStyle=orthogonalEdgeStyle;rounded=0;orthogonalLoop=1;jettySize=auto;html=1;" edge="1" parent="1" source="ED8gdHnS3LrSKot_yKOK-18" target="ED8gdHnS3LrSKot_yKOK-19">
          <mxGeometry relative="1" as="geometry" />
        </mxCell>
        <mxCell id="ED8gdHnS3LrSKot_yKOK-18" value="Developer" style="text;html=1;strokeColor=none;fillColor=none;align=center;verticalAlign=middle;whiteSpace=wrap;rounded=0;" vertex="1" parent="1">
          <mxGeometry x="120.5" y="158" width="99" height="30" as="geometry" />
        </mxCell>
        <mxCell id="ED8gdHnS3LrSKot_yKOK-33" style="edgeStyle=orthogonalEdgeStyle;rounded=0;orthogonalLoop=1;jettySize=auto;html=1;" edge="1" parent="1" source="ED8gdHnS3LrSKot_yKOK-19" target="ED8gdHnS3LrSKot_yKOK-25">
          <mxGeometry relative="1" as="geometry" />
        </mxCell>
        <mxCell id="ED8gdHnS3LrSKot_yKOK-19" value="SSH Port forward tunnel" style="rounded=0;whiteSpace=wrap;html=1;" vertex="1" parent="1">
          <mxGeometry x="110" y="230" width="120" height="60" as="geometry" />
        </mxCell>
        <mxCell id="ED8gdHnS3LrSKot_yKOK-61" style="edgeStyle=orthogonalEdgeStyle;rounded=0;orthogonalLoop=1;jettySize=auto;html=1;" edge="1" parent="1" source="ED8gdHnS3LrSKot_yKOK-25" target="ED8gdHnS3LrSKot_yKOK-55">
          <mxGeometry relative="1" as="geometry">
            <Array as="points">
              <mxPoint x="220" y="560" />
              <mxPoint x="207" y="560" />
            </Array>
          </mxGeometry>
        </mxCell>
        <mxCell id="ED8gdHnS3LrSKot_yKOK-62" style="edgeStyle=orthogonalEdgeStyle;rounded=0;orthogonalLoop=1;jettySize=auto;html=1;" edge="1" parent="1" source="ED8gdHnS3LrSKot_yKOK-25" target="ED8gdHnS3LrSKot_yKOK-54">
          <mxGeometry relative="1" as="geometry">
            <Array as="points">
              <mxPoint x="220" y="540" />
              <mxPoint x="113" y="540" />
            </Array>
          </mxGeometry>
        </mxCell>
        <mxCell id="ED8gdHnS3LrSKot_yKOK-63" style="edgeStyle=orthogonalEdgeStyle;rounded=0;orthogonalLoop=1;jettySize=auto;html=1;" edge="1" parent="1" source="ED8gdHnS3LrSKot_yKOK-25" target="ED8gdHnS3LrSKot_yKOK-58">
          <mxGeometry relative="1" as="geometry">
            <Array as="points">
              <mxPoint x="220" y="540" />
              <mxPoint x="310" y="540" />
              <mxPoint x="310" y="780" />
            </Array>
          </mxGeometry>
        </mxCell>
        <mxCell id="ED8gdHnS3LrSKot_yKOK-64" style="edgeStyle=orthogonalEdgeStyle;rounded=0;orthogonalLoop=1;jettySize=auto;html=1;" edge="1" parent="1" source="ED8gdHnS3LrSKot_yKOK-25" target="ED8gdHnS3LrSKot_yKOK-57">
          <mxGeometry relative="1" as="geometry">
            <Array as="points">
              <mxPoint x="220" y="560" />
              <mxPoint x="160" y="560" />
              <mxPoint x="160" y="777" />
            </Array>
          </mxGeometry>
        </mxCell>
        <mxCell id="ED8gdHnS3LrSKot_yKOK-25" value="ssh port" style="ellipse;whiteSpace=wrap;html=1;aspect=fixed;" vertex="1" parent="1">
          <mxGeometry x="180" y="390" width="80" height="80" as="geometry" />
        </mxCell>
        <mxCell id="ED8gdHnS3LrSKot_yKOK-38" style="edgeStyle=orthogonalEdgeStyle;rounded=0;orthogonalLoop=1;jettySize=auto;html=1;" edge="1" parent="1" source="ED8gdHnS3LrSKot_yKOK-27" target="ED8gdHnS3LrSKot_yKOK-37">
          <mxGeometry relative="1" as="geometry" />
        </mxCell>
        <mxCell id="ED8gdHnS3LrSKot_yKOK-27" value="HAPROXY" style="rounded=0;whiteSpace=wrap;html=1;" vertex="1" parent="1">
          <mxGeometry x="378" y="400" width="120" height="60" as="geometry" />
        </mxCell>
        <mxCell id="ED8gdHnS3LrSKot_yKOK-29" value="" style="rounded=0;whiteSpace=wrap;html=1;" vertex="1" parent="1">
          <mxGeometry x="414" y="740" width="376" height="100" as="geometry" />
        </mxCell>
        <mxCell id="ED8gdHnS3LrSKot_yKOK-34" value="mapping to other port instead of 25" style="rounded=0;whiteSpace=wrap;html=1;" vertex="1" parent="1">
          <mxGeometry x="88" y="375" width="60" height="110" as="geometry" />
        </mxCell>
        <mxCell id="ED8gdHnS3LrSKot_yKOK-36" value="" style="endArrow=classic;startArrow=classic;html=1;rounded=0;" edge="1" parent="1" source="ED8gdHnS3LrSKot_yKOK-34">
          <mxGeometry width="50" height="50" relative="1" as="geometry">
            <mxPoint x="148" y="480" as="sourcePoint" />
            <mxPoint x="180" y="430" as="targetPoint" />
          </mxGeometry>
        </mxCell>
        <mxCell id="ED8gdHnS3LrSKot_yKOK-47" style="edgeStyle=orthogonalEdgeStyle;rounded=0;orthogonalLoop=1;jettySize=auto;html=1;entryX=0.5;entryY=0;entryDx=0;entryDy=0;" edge="1" parent="1" source="ED8gdHnS3LrSKot_yKOK-37" target="ED8gdHnS3LrSKot_yKOK-42">
          <mxGeometry relative="1" as="geometry">
            <Array as="points">
              <mxPoint x="592" y="650" />
              <mxPoint x="478" y="650" />
            </Array>
          </mxGeometry>
        </mxCell>
        <mxCell id="ED8gdHnS3LrSKot_yKOK-48" style="edgeStyle=orthogonalEdgeStyle;rounded=0;orthogonalLoop=1;jettySize=auto;html=1;" edge="1" parent="1" source="ED8gdHnS3LrSKot_yKOK-37" target="ED8gdHnS3LrSKot_yKOK-43">
          <mxGeometry relative="1" as="geometry" />
        </mxCell>
        <mxCell id="ED8gdHnS3LrSKot_yKOK-49" style="edgeStyle=orthogonalEdgeStyle;rounded=0;orthogonalLoop=1;jettySize=auto;html=1;entryX=0.5;entryY=0;entryDx=0;entryDy=0;" edge="1" parent="1" source="ED8gdHnS3LrSKot_yKOK-37" target="ED8gdHnS3LrSKot_yKOK-44">
          <mxGeometry relative="1" as="geometry">
            <Array as="points">
              <mxPoint x="592" y="650" />
              <mxPoint x="719" y="650" />
            </Array>
          </mxGeometry>
        </mxCell>
        <mxCell id="ED8gdHnS3LrSKot_yKOK-37" value="API gateway" style="ellipse;whiteSpace=wrap;html=1;aspect=fixed;" vertex="1" parent="1">
          <mxGeometry x="552" y="530" width="80" height="80" as="geometry" />
        </mxCell>
        <mxCell id="ED8gdHnS3LrSKot_yKOK-39" value="Application 1" style="rounded=0;whiteSpace=wrap;html=1;" vertex="1" parent="1">
          <mxGeometry x="432" y="760" width="92" height="60" as="geometry" />
        </mxCell>
        <mxCell id="ED8gdHnS3LrSKot_yKOK-40" value="Application 3" style="rounded=0;whiteSpace=wrap;html=1;" vertex="1" parent="1">
          <mxGeometry x="674" y="760" width="90" height="60" as="geometry" />
        </mxCell>
        <mxCell id="ED8gdHnS3LrSKot_yKOK-41" value="Application 2" style="rounded=0;whiteSpace=wrap;html=1;" vertex="1" parent="1">
          <mxGeometry x="552" y="760" width="92" height="60" as="geometry" />
        </mxCell>
        <mxCell id="ED8gdHnS3LrSKot_yKOK-50" style="edgeStyle=orthogonalEdgeStyle;rounded=0;orthogonalLoop=1;jettySize=auto;html=1;" edge="1" parent="1" source="ED8gdHnS3LrSKot_yKOK-42" target="ED8gdHnS3LrSKot_yKOK-39">
          <mxGeometry relative="1" as="geometry" />
        </mxCell>
        <mxCell id="ED8gdHnS3LrSKot_yKOK-42" value="route_1" style="text;html=1;strokeColor=none;fillColor=none;align=center;verticalAlign=middle;whiteSpace=wrap;rounded=0;" vertex="1" parent="1">
          <mxGeometry x="448" y="670" width="60" height="30" as="geometry" />
        </mxCell>
        <mxCell id="ED8gdHnS3LrSKot_yKOK-51" style="edgeStyle=orthogonalEdgeStyle;rounded=0;orthogonalLoop=1;jettySize=auto;html=1;" edge="1" parent="1" source="ED8gdHnS3LrSKot_yKOK-43" target="ED8gdHnS3LrSKot_yKOK-41">
          <mxGeometry relative="1" as="geometry" />
        </mxCell>
        <mxCell id="ED8gdHnS3LrSKot_yKOK-43" value="route_2" style="text;html=1;strokeColor=none;fillColor=none;align=center;verticalAlign=middle;whiteSpace=wrap;rounded=0;" vertex="1" parent="1">
          <mxGeometry x="562" y="670" width="60" height="30" as="geometry" />
        </mxCell>
        <mxCell id="ED8gdHnS3LrSKot_yKOK-52" style="edgeStyle=orthogonalEdgeStyle;rounded=0;orthogonalLoop=1;jettySize=auto;html=1;" edge="1" parent="1" source="ED8gdHnS3LrSKot_yKOK-44" target="ED8gdHnS3LrSKot_yKOK-40">
          <mxGeometry relative="1" as="geometry" />
        </mxCell>
        <mxCell id="ED8gdHnS3LrSKot_yKOK-44" value="route_3" style="text;html=1;strokeColor=none;fillColor=none;align=center;verticalAlign=middle;whiteSpace=wrap;rounded=0;" vertex="1" parent="1">
          <mxGeometry x="689" y="670" width="60" height="30" as="geometry" />
        </mxCell>
        <mxCell id="ED8gdHnS3LrSKot_yKOK-54" value="" style="image;sketch=0;aspect=fixed;html=1;points=[];align=center;fontSize=12;image=img/lib/mscae/Cache_Redis_Product.svg;" vertex="1" parent="1">
          <mxGeometry x="88" y="653.8" width="50" height="42" as="geometry" />
        </mxCell>
        <mxCell id="ED8gdHnS3LrSKot_yKOK-55" value="" style="outlineConnect=0;dashed=0;verticalLabelPosition=bottom;verticalAlign=top;align=center;html=1;shape=mxgraph.aws3.mysql_db_instance_2;fillColor=#2E73B8;gradientColor=none;" vertex="1" parent="1">
          <mxGeometry x="177" y="643.8" width="60" height="63" as="geometry" />
        </mxCell>
        <mxCell id="ED8gdHnS3LrSKot_yKOK-57" value="" style="dashed=0;outlineConnect=0;html=1;align=center;labelPosition=center;verticalLabelPosition=bottom;verticalAlign=top;shape=mxgraph.weblogos.mongodb" vertex="1" parent="1">
          <mxGeometry x="88" y="733.8" width="41.2" height="86.2" as="geometry" />
        </mxCell>
        <mxCell id="ED8gdHnS3LrSKot_yKOK-58" value="" style="outlineConnect=0;dashed=0;verticalLabelPosition=bottom;verticalAlign=top;align=center;html=1;shape=mxgraph.aws3.search_documents;fillColor=#F58534;gradientColor=none;" vertex="1" parent="1">
          <mxGeometry x="177" y="753.8" width="60" height="63" as="geometry" />
        </mxCell>
        <mxCell id="ED8gdHnS3LrSKot_yKOK-65" style="edgeStyle=orthogonalEdgeStyle;rounded=0;orthogonalLoop=1;jettySize=auto;html=1;entryX=0.996;entryY=0.809;entryDx=0;entryDy=0;entryPerimeter=0;" edge="1" parent="1" source="ED8gdHnS3LrSKot_yKOK-29" target="ED8gdHnS3LrSKot_yKOK-59">
          <mxGeometry relative="1" as="geometry" />
        </mxCell>
      </root>
    </mxGraphModel>
  </diagram>
</mxfile>
